<?xml version="1.0" encoding="UTF-8"?>
<!DOCTYPE svg PUBLIC "-//W3C//DTD SVG 1.1//EN" "http://www.w3.org/Graphics/SVG/1.1/DTD/svg11.dtd">
<!-- Creator: CorelDRAW X8 -->
<svg xmlns="http://www.w3.org/2000/svg" xml:space="preserve" width="75.6072mm" height="22.1826mm" version="1.1" style="shape-rendering:geometricPrecision; text-rendering:geometricPrecision; image-rendering:optimizeQuality; fill-rule:evenodd; clip-rule:evenodd"
viewBox="0 0 7561 2218"
 xmlns:xlink="http://www.w3.org/1999/xlink">
 <defs>
  <style type="text/css">
   <![CDATA[
    .fil3 {fill:none}
    .fil2 {fill:#269629}
    .fil1 {fill:#4C7484}
    .fil0 {fill:#8AEB8D}
    .fil4 {fill:#35A536;fill-rule:nonzero}
    .fil5 {fill:#F07C00;fill-rule:nonzero}
   ]]>
  </style>
    <clipPath id="id0">
     <path d="M1033 1312c414,142 684,-193 1072,363 118,168 243,444 260,479 17,36 23,54 23,54 -494,22 -458,-99 -811,-365 -598,-451 -763,446 -1576,370 451,-716 853,-1470 1260,-2212l589 1068c-786,-645 -1225,104 -817,243z"/>
    </clipPath>
      <mask id="id1">
  <linearGradient id="id2" gradientUnits="userSpaceOnUse" x1="-1530.22" y1="827.665" x2="-1115.06" y2="1142.41">
   <stop offset="0" style="stop-opacity:1; stop-color:white"/>
   <stop offset="0.341176" style="stop-opacity:0.501961; stop-color:white"/>
   <stop offset="1" style="stop-opacity:0; stop-color:white"/>
  </linearGradient>
       <rect style="fill:url(#id2)" x="-2144" y="434" width="1503" height="1405"/>
      </mask>
      <mask id="id3">
  <linearGradient id="id4" gradientUnits="userSpaceOnUse" x1="1373.12" y1="2076.67" x2="2407.7" y2="2211.56">
   <stop offset="0" style="stop-opacity:1; stop-color:white"/>
   <stop offset="1" style="stop-opacity:0; stop-color:white"/>
  </linearGradient>
       <rect style="fill:url(#id4)" x="3" y="1336" width="2404" height="883"/>
      </mask>
      <mask id="id5">
  <linearGradient id="id6" gradientUnits="userSpaceOnUse" x1="1646.38" y1="522.523" x2="1112.49" y2="572.91">
   <stop offset="0" style="stop-opacity:1; stop-color:white"/>
   <stop offset="1" style="stop-opacity:0; stop-color:white"/>
  </linearGradient>
       <rect style="fill:url(#id6)" x="447" y="-156" width="1572" height="1507"/>
      </mask>
      <mask id="id7">
  <linearGradient id="id8" gradientUnits="userSpaceOnUse" x1="608.331" y1="1220.06" x2="1015" y2="1530.71">
   <stop offset="0" style="stop-opacity:1; stop-color:white"/>
   <stop offset="0.341176" style="stop-opacity:0.501961; stop-color:white"/>
   <stop offset="1" style="stop-opacity:0; stop-color:white"/>
  </linearGradient>
       <rect style="fill:url(#id8)" x="3" y="837" width="1480" height="1373"/>
      </mask>
 </defs>
 <g id="Слой_x0020_1">
  <metadata id="CorelCorpID_0Corel-Layer"/>
  <g id="_1950103812800">
   <path class="fil0" d="M1033 1312c414,142 684,-193 1072,363 118,168 243,444 260,479 17,36 23,54 23,54 -494,22 -458,-99 -811,-365 -598,-451 -763,446 -1576,370 451,-716 853,-1470 1260,-2212l589 1068c-786,-645 -1225,104 -817,243z"/>
   <g style="clip-path:url(#id0)">
    <g>
     <path id="1" class="fil1" style="mask:url(#id1)" d="M-1085 434c-145,137 -297,410 -27,502 195,67 280,9 471,9 0,0 -136,47 -190,75 -342,175 -549,519 -896,733 -46,28 -100,56 -209,74 -108,19 -208,10 -208,10 266,-418 518,-1074 914,-1328 73,-47 145,-75 145,-75z"/>
     <path class="fil2" style="mask:url(#id3)" d="M3 2210c3,0 10,-12 13,-12 241,-36 421,-80 594,-260 427,-428 1075,-961 1511,-268 70,112 180,350 236,478 14,32 64,64 46,65 -500,36 -443,-93 -804,-353 -630,-453 -715,388 -1487,353 -44,-2 -99,-2 -109,-3z"/>
     <path class="fil2" style="mask:url(#id5)" d="M447 1351c582,-702 947,-666 1572,-153l-746 -1354 -826 1507z"/>
     <path class="fil2" style="mask:url(#id7)" d="M1086 837c-140,132 -315,386 -53,475 189,65 265,19 450,19 0,0 -132,45 -184,72 -331,170 -532,504 -869,711 -44,27 -97,54 -202,72 -105,18 -225,24 -225,24 257,-405 519,-1067 910,-1302 80,-49 173,-71 173,-71z"/>
    </g>
   </g>
   <path class="fil3" d="M1033 1312c414,142 684,-193 1072,363 118,168 243,444 260,479 17,36 23,54 23,54 -494,22 -458,-99 -811,-365 -598,-451 -763,446 -1576,370 451,-716 853,-1470 1260,-2212l589 1068c-786,-645 -1225,104 -817,243z"/>
   <path class="fil4" d="M2909 621l-192 0 -49 129 -99 0 201 -506 85 0 201 506 -98 0 -49 -129zm-97 -256c-18,53 -34,97 -48,133l-17 46 132 0 -17 -46c-14,-36 -30,-80 -48,-133l-2 0zm576 249c11,-40 25,-83 41,-128l88 -242 130 0 0 506 -93 0 0 -257c0,-37 2,-81 5,-131l-4 0c-4,15 -9,31 -15,49 -6,18 -12,36 -18,53l-105 286 -59 0 -105 -286c-6,-17 -12,-35 -18,-53 -6,-18 -11,-34 -15,-49l-4 0c3,47 5,91 5,131l0 257 -93 0 0 -506 129 0 88 241c14,40 28,83 41,129l2 0zm380 136l0 -506 93 0 0 506 -93 0zm529 -194l-114 0 0 -77 207 0 0 255c-8,3 -17,6 -29,9 -12,3 -25,6 -39,8 -15,2 -30,4 -45,6 -16,1 -31,2 -46,2 -46,0 -85,-6 -119,-18 -34,-12 -62,-30 -85,-52 -22,-22 -39,-49 -51,-79 -11,-31 -16,-65 -16,-102 0,-26 3,-51 9,-75 5,-24 14,-46 26,-66 11,-21 25,-39 42,-55 16,-17 35,-31 56,-43 21,-11 44,-20 69,-26 25,-6 52,-9 81,-9 26,0 50,1 73,5 23,4 42,8 56,13l0 78c-19,-6 -39,-10 -59,-13 -20,-4 -41,-5 -61,-5 -28,0 -53,4 -77,12 -24,8 -45,21 -63,37 -17,16 -31,35 -41,59 -10,23 -15,51 -15,81 0,60 16,105 47,135 31,30 74,45 131,45 11,0 22,-1 33,-2 11,-1 21,-2 30,-4l0 -119zm582 -60c0,-31 -4,-57 -12,-81 -7,-23 -18,-42 -31,-57 -13,-16 -29,-27 -48,-35 -18,-7 -38,-11 -60,-11 -22,0 -42,4 -61,11 -18,8 -34,19 -47,35 -14,15 -24,34 -32,57 -7,24 -11,50 -11,81 0,31 4,58 11,81 8,23 18,43 32,58 13,15 29,27 47,34 19,8 39,12 61,12 22,0 42,-4 60,-12 19,-7 35,-19 48,-34 13,-15 24,-35 31,-58 8,-23 12,-50 12,-81zm96 0c0,39 -6,74 -17,107 -11,32 -27,60 -48,83 -21,23 -47,41 -78,54 -30,13 -65,19 -104,19 -39,0 -74,-6 -105,-19 -31,-13 -56,-31 -78,-54 -21,-23 -37,-51 -48,-83 -11,-33 -16,-68 -16,-107 0,-38 5,-74 16,-106 11,-32 27,-60 48,-83 22,-23 47,-41 78,-54 31,-13 66,-19 105,-19 39,0 74,6 104,19 31,13 57,31 78,54 21,23 37,51 48,83 11,32 17,68 17,106zm487 108c0,-13 -3,-23 -9,-31 -6,-8 -15,-14 -26,-19 -11,-6 -23,-10 -36,-13 -14,-3 -28,-6 -43,-9 -19,-4 -38,-9 -56,-15 -18,-6 -34,-15 -47,-25 -14,-10 -24,-24 -32,-40 -9,-16 -13,-36 -13,-61 0,-26 5,-50 14,-69 10,-20 23,-37 39,-50 16,-13 34,-22 56,-29 22,-6 46,-9 73,-9 27,0 54,2 81,7 28,6 51,13 71,21l0 79c-26,-10 -52,-18 -76,-22 -24,-5 -46,-7 -68,-7 -30,0 -54,5 -70,17 -17,11 -25,27 -25,50 0,12 3,23 8,31 6,9 13,16 22,21 9,5 20,10 32,13 12,3 25,6 39,9 21,5 41,10 61,16 19,6 37,14 52,25 15,10 27,24 36,41 8,17 13,39 13,66 0,27 -5,50 -15,70 -10,20 -25,37 -43,50 -19,13 -41,22 -68,29 -26,6 -55,9 -87,9 -27,0 -55,-3 -81,-8 -27,-5 -49,-13 -67,-23l0 -78c25,11 50,19 74,24 23,4 48,7 73,7 15,0 29,-1 43,-4 14,-2 27,-6 38,-12 11,-6 20,-14 27,-24 7,-10 10,-22 10,-37zm407 146l-93 0 0 -429 -164 0 0 -77 420 0 0 77 -163 0 0 429zm590 -254c0,-31 -3,-57 -11,-81 -7,-23 -18,-42 -31,-57 -14,-16 -30,-27 -48,-35 -18,-7 -38,-11 -60,-11 -22,0 -42,4 -61,11 -18,8 -34,19 -47,35 -14,15 -24,34 -32,57 -7,24 -11,50 -11,81 0,31 4,58 11,81 8,23 18,43 32,58 13,15 29,27 47,34 19,8 39,12 61,12 22,0 42,-4 60,-12 18,-7 34,-19 48,-34 13,-15 24,-35 31,-58 8,-23 11,-50 11,-81zm97 0c0,39 -6,74 -17,107 -11,32 -27,60 -48,83 -21,23 -47,41 -78,54 -30,13 -65,19 -104,19 -39,0 -74,-6 -105,-19 -31,-13 -57,-31 -78,-54 -21,-23 -37,-51 -48,-83 -11,-33 -16,-68 -16,-107 0,-38 5,-74 16,-106 11,-32 27,-60 48,-83 21,-23 47,-41 78,-54 31,-13 66,-19 105,-19 39,0 74,6 104,19 31,13 57,31 78,54 21,23 37,51 48,83 11,32 17,68 17,106zm362 -17c36,52 66,98 88,138l2 0c-2,-66 -4,-114 -4,-144l0 -229 93 0 0 506 -97 0 -166 -233c-29,-41 -59,-87 -90,-141l-2 0c3,63 5,111 5,145l0 229 -93 0 0 -506 97 0 167 235zm393 193l249 0 0 78 -342 0 0 -506 328 0 0 77 -235 0 0 131 202 0 0 78 -202 0 0 142z"/>
   <polygon class="fil5" points="2852,1447 2643,1447 2643,1085 2852,1085 2852,1148 2720,1148 2720,1227 2843,1227 2843,1290 2720,1290 2720,1384 2852,1384 "/>
   <path id="1" class="fil5" d="M3095 1392l0 -165 -57 0c-4,31 -10,60 -17,87 -7,28 -17,54 -30,78l104 0zm116 154l-68 0 0 -99 -186 0 0 99 -68 0 0 -154 23 0c16,-25 29,-56 40,-93 11,-38 18,-81 22,-129l196 0 0 222 41 0 0 154z"/>
   <path id="2" class="fil5" d="M3331 1170l0 110c0,11 -2,39 -6,84l128 -194 91 0 0 277 -73 0 0 -110c0,-20 1,-48 5,-84l-128 194 -90 0 0 -277 73 0z"/>
   <polygon id="3" class="fil5" points="3698,1170 3698,1277 3804,1277 3804,1170 3879,1170 3879,1447 3804,1447 3804,1333 3698,1333 3698,1447 3623,1447 3623,1170 "/>
   <path id="4" class="fil5" d="M4034 1277l36 0c43,0 74,7 94,20 20,14 30,34 30,62 0,29 -10,51 -30,66 -20,15 -51,22 -91,22l-115 0 0 -277 76 0 0 107zm85 83c0,-11 -4,-19 -13,-23 -8,-5 -21,-8 -38,-8l-34 0 0 66 35 0c33,0 50,-12 50,-35zm191 87l-75 0 0 -277 75 0 0 277z"/>
   <path id="5" class="fil5" d="M4462 1170l0 110c0,11 -2,39 -5,84l127 -194 91 0 0 277 -73 0 0 -110c0,-20 2,-48 5,-84l-127 194 -91 0 0 -277 73 0zm191 -119c-3,31 -15,53 -35,68 -20,14 -49,21 -87,21 -39,0 -68,-7 -87,-21 -19,-13 -29,-36 -32,-68l68 0c1,17 5,29 13,36 7,7 20,10 39,10 17,0 29,-3 37,-11 9,-8 14,-19 15,-35l69 0z"/>
   <polygon id="6" class="fil5" points="5137,1170 5137,1447 5062,1447 5062,1227 4961,1227 4961,1447 4886,1447 4886,1170 "/>
   <path id="7" class="fil5" d="M5276 1308c0,27 5,48 14,62 9,14 24,21 44,21 20,0 34,-7 43,-21 9,-14 13,-34 13,-62 0,-27 -4,-48 -13,-62 -9,-13 -23,-20 -44,-20 -20,0 -34,7 -43,20 -9,14 -14,35 -14,62zm192 0c0,45 -12,80 -36,106 -24,25 -57,38 -99,38 -27,0 -50,-6 -70,-17 -21,-12 -36,-29 -47,-51 -11,-21 -16,-47 -16,-76 0,-45 11,-80 35,-105 23,-25 57,-38 99,-38 27,0 50,6 71,17 20,12 35,29 46,50 11,22 17,47 17,76z"/>
   <path id="8" class="fil5" d="M5682 1452c-32,0 -58,-12 -76,-35l-4 0c2,23 4,36 4,40l0 112 -76 0 0 -399 61 0 11 36 4 0c17,-27 43,-41 78,-41 33,0 58,13 77,38 18,25 27,60 27,105 0,30 -4,55 -13,77 -8,22 -20,39 -37,50 -15,11 -34,17 -56,17zm-22 -227c-19,0 -33,6 -41,18 -9,11 -13,30 -13,56l0 9c0,29 4,50 13,63 9,13 23,20 42,20 34,0 51,-28 51,-84 0,-27 -5,-48 -13,-61 -8,-14 -21,-21 -39,-21z"/>
   <polygon id="9" class="fil5" points="6075,1170 6075,1227 5984,1227 5984,1447 5909,1447 5909,1227 5818,1227 5818,1170 "/>
   <path id="10" class="fil5" d="M6302 1447l-15 -38 -2 0c-12,16 -26,28 -39,34 -13,6 -31,9 -52,9 -27,0 -48,-8 -63,-23 -16,-15 -23,-37 -23,-65 0,-29 10,-51 31,-65 20,-14 51,-21 93,-23l48 -1 0 -13c0,-28 -15,-42 -43,-42 -23,0 -49,7 -78,20l-25 -50c31,-17 67,-25 106,-25 37,0 65,8 85,24 20,16 30,41 30,74l0 184 -53 0zm-22 -128l-30 1c-22,0 -38,4 -49,12 -10,7 -16,18 -16,33 0,21 13,32 37,32 17,0 31,-5 42,-15 10,-10 16,-24 16,-40l0 -23z"/>
   <path id="11" class="fil5" d="M6680 1447l-75 0 0 -220 -70 0c-5,62 -12,108 -19,138 -8,31 -18,53 -31,67 -12,13 -29,20 -49,20 -18,0 -32,-3 -43,-8l0 -60c8,3 16,5 24,5 9,0 17,-7 24,-21 6,-13 12,-36 17,-67 5,-32 9,-75 13,-131l209 0 0 277z"/>
   <polygon id="12" class="fil5" points="2819,1706 2902,1706 2792,1838 2912,1982 2826,1982 2713,1842 2713,1982 2638,1982 2638,1706 2713,1706 2713,1840 "/>
   <path id="13" class="fil5" d="M3127 1982l-15 -37 -2 0c-12,16 -25,27 -39,33 -13,6 -31,9 -52,9 -27,0 -48,-7 -63,-22 -15,-16 -23,-37 -23,-65 0,-30 10,-51 31,-65 20,-14 51,-22 93,-23l48 -2 0 -12c0,-28 -15,-42 -43,-42 -22,0 -48,6 -78,20l-25 -51c32,-17 67,-25 106,-25 37,0 65,8 85,24 20,16 30,41 30,74l0 184 -53 0zm-22 -128l-29 1c-22,1 -39,5 -49,12 -11,7 -17,18 -17,33 0,22 13,32 37,32 18,0 32,-5 42,-15 10,-10 16,-23 16,-40l0 -23z"/>
   <path id="14" class="fil5" d="M3606 1982l-71 0 0 -218 -4 16c-8,34 -16,61 -24,79l-48 123 -54 0 -50 -124c-7,-19 -15,-44 -23,-77l-4 -17 0 218 -71 0 0 -276 104 0 48 118c5,12 9,27 14,43 4,17 7,31 8,43 6,-25 10,-43 13,-54 3,-10 6,-20 10,-29 3,-9 20,-50 49,-121l103 0 0 276z"/>
   <path id="15" class="fil5" d="M3800 1754c-16,0 -29,5 -38,15 -9,11 -14,25 -15,44l106 0c-1,-19 -6,-33 -15,-44 -9,-10 -22,-15 -38,-15zm11 233c-45,0 -80,-12 -105,-37 -25,-24 -38,-59 -38,-104 0,-46 12,-82 35,-107 23,-26 55,-38 96,-38 39,0 70,11 92,33 21,22 32,53 32,92l0 37 -178 0c1,21 7,38 19,50 12,12 29,18 50,18 17,0 32,-2 47,-5 15,-4 31,-9 47,-17l0 59c-13,6 -28,11 -43,15 -15,3 -33,4 -54,4z"/>
   <polygon id="16" class="fil5" points="4060,1706 4060,1812 4166,1812 4166,1706 4241,1706 4241,1982 4166,1982 4166,1868 4060,1868 4060,1982 3985,1982 3985,1706 "/>
   <polygon id="17" class="fil5" points="4396,1706 4396,1812 4501,1812 4501,1706 4577,1706 4577,1982 4501,1982 4501,1868 4396,1868 4396,1982 4320,1982 4320,1706 "/>
   <path id="18" class="fil5" d="M4716 1843c0,28 4,49 13,63 9,14 24,21 44,21 20,0 35,-7 44,-21 9,-14 13,-35 13,-63 0,-27 -4,-47 -13,-61 -9,-14 -24,-21 -44,-21 -20,0 -35,7 -44,21 -9,13 -13,34 -13,61zm191 1c0,45 -12,80 -35,105 -24,26 -57,38 -100,38 -26,0 -50,-5 -70,-17 -20,-12 -36,-28 -47,-50 -11,-22 -16,-47 -16,-76 0,-46 12,-81 35,-106 24,-25 57,-37 100,-37 26,0 50,5 70,17 20,11 36,28 47,50 11,21 16,47 16,76z"/>
   <path id="19" class="fil5" d="M5043 1706l0 109c0,12 -2,40 -6,85l128 -194 90 0 0 276 -73 0 0 -110c0,-20 2,-47 5,-83l-127 193 -90 0 0 -276 73 0zm190 -119c-3,30 -15,53 -35,67 -20,14 -49,21 -87,21 -39,0 -68,-7 -87,-20 -18,-14 -29,-36 -31,-68l67 0c1,17 6,28 13,35 7,7 21,11 40,11 16,0 29,-4 37,-12 8,-7 13,-19 15,-34l68 0z"/>
   <path id="20" class="fil5" d="M5526 1843c0,28 5,49 14,63 9,14 24,21 44,21 20,0 34,-7 43,-21 9,-14 13,-35 13,-63 0,-27 -4,-47 -13,-61 -9,-14 -23,-21 -44,-21 -20,0 -34,7 -43,21 -9,13 -14,34 -14,61zm192 1c0,45 -12,80 -36,105 -24,26 -57,38 -99,38 -27,0 -50,-5 -70,-17 -21,-12 -36,-28 -47,-50 -11,-22 -16,-47 -16,-76 0,-46 11,-81 35,-106 23,-25 57,-37 99,-37 27,0 50,5 71,17 20,11 35,28 46,50 11,21 17,47 17,76z"/>
   <polygon id="21" class="fil5" points="6004,1706 6004,1762 5913,1762 5913,1982 5838,1982 5838,1762 5747,1762 5747,1706 "/>
   <path id="22" class="fil5" d="M6207 1987c-32,0 -58,-11 -76,-35l-4 0c3,23 4,36 4,40l0 112 -76 0 0 -398 62 0 10 36 4 0c18,-28 44,-41 78,-41 33,0 59,12 77,37 19,26 28,61 28,106 0,29 -4,55 -13,77 -9,21 -21,38 -37,49 -16,12 -35,17 -57,17zm-22 -226c-18,0 -32,6 -41,17 -8,11 -13,30 -13,57l0 8c0,30 4,51 13,64 9,13 23,19 42,19 34,0 51,-28 51,-84 0,-27 -4,-47 -13,-61 -8,-13 -21,-20 -39,-20z"/>
   <path id="23" class="fil5" d="M6552 1982l-15 -37 -2 0c-12,16 -26,27 -39,33 -13,6 -31,9 -52,9 -27,0 -48,-7 -63,-22 -16,-16 -23,-37 -23,-65 0,-30 10,-51 31,-65 20,-14 51,-22 93,-23l48 -2 0 -12c0,-28 -15,-42 -43,-42 -23,0 -49,6 -78,20l-25 -51c31,-17 67,-25 106,-25 37,0 65,8 85,24 20,16 30,41 30,74l0 184 -53 0zm-22 -128l-30 1c-22,1 -38,5 -49,12 -10,7 -16,18 -16,33 0,22 13,32 37,32 17,0 31,-5 42,-15 10,-10 16,-23 16,-40l0 -23z"/>
   <path id="24" class="fil5" d="M6795 1987c-87,0 -129,-47 -129,-141 0,-47 11,-83 35,-108 23,-25 57,-37 100,-37 32,0 61,6 86,18l-22 59c-12,-5 -23,-9 -33,-12 -10,-3 -20,-5 -31,-5 -39,0 -59,28 -59,84 0,54 20,81 59,81 15,0 28,-2 41,-6 12,-4 24,-10 37,-18l0 65c-12,8 -25,13 -37,16 -13,3 -28,4 -47,4z"/>
   <path id="25" class="fil5" d="M7191 1982l-76 0 0 -220 -69 0c-6,62 -12,108 -20,139 -7,30 -17,52 -30,66 -13,14 -29,20 -50,20 -17,0 -31,-2 -43,-8l0 -60c8,3 16,5 25,5 9,0 17,-7 23,-20 7,-14 12,-36 17,-68 5,-32 10,-75 13,-130l210 0 0 276z"/>
   <path id="26" class="fil5" d="M7343 1706l0 109c0,12 -2,40 -6,85l128 -194 90 0 0 276 -73 0 0 -110c0,-20 2,-47 5,-83l-127 193 -90 0 0 -276 73 0z"/>
  </g>
 </g>
</svg>
