<?xml version="1.0" encoding="UTF-8"?>
<!DOCTYPE svg PUBLIC "-//W3C//DTD SVG 1.1//EN" "http://www.w3.org/Graphics/SVG/1.1/DTD/svg11.dtd">
<!-- Creator: CorelDRAW X8 -->
<svg xmlns="http://www.w3.org/2000/svg" xml:space="preserve" width="23.8758mm" height="22.1826mm" version="1.1" style="shape-rendering:geometricPrecision; text-rendering:geometricPrecision; image-rendering:optimizeQuality; fill-rule:evenodd; clip-rule:evenodd"
viewBox="0 0 2388 2218"
 xmlns:xlink="http://www.w3.org/1999/xlink">
 <defs>
  <style type="text/css">
   <![CDATA[
    .fil3 {fill:none}
    .fil0 {fill:#FEFEFE}
    .fil2 {fill:#EBECEC}
    .fil1 {fill:#EBECEC}
   ]]>
  </style>
   <clipPath id="id0">
    <path d="M1032 1312c414,142 684,-193 1072,363 118,168 243,444 260,479 17,36 23,54 23,54 -494,22 -458,-99 -811,-365 -598,-451 -763,446 -1576,370 451,-716 853,-1470 1260,-2212l589 1068c-786,-645 -1224,104 -817,243z"/>
   </clipPath>
     <mask id="id1">
  <linearGradient id="id2" gradientUnits="userSpaceOnUse" x1="1372.23" y1="2076.67" x2="2406.81" y2="2211.56">
   <stop offset="0" style="stop-opacity:1; stop-color:white"/>
   <stop offset="1" style="stop-opacity:0; stop-color:white"/>
  </linearGradient>
      <rect style="fill:url(#id2)" x="2" y="1336" width="2404" height="883"/>
     </mask>
     <mask id="id3">
  <linearGradient id="id4" gradientUnits="userSpaceOnUse" x1="1645.49" y1="522.523" x2="1111.6" y2="572.91">
   <stop offset="0" style="stop-opacity:1; stop-color:white"/>
   <stop offset="1" style="stop-opacity:0; stop-color:white"/>
  </linearGradient>
      <rect style="fill:url(#id4)" x="446" y="-156" width="1572" height="1507"/>
     </mask>
     <mask id="id5">
  <linearGradient id="id6" gradientUnits="userSpaceOnUse" x1="607.441" y1="1220.06" x2="1014.11" y2="1530.71">
   <stop offset="0" style="stop-opacity:1; stop-color:white"/>
   <stop offset="0.341176" style="stop-opacity:0.501961; stop-color:white"/>
   <stop offset="1" style="stop-opacity:0; stop-color:white"/>
  </linearGradient>
      <rect style="fill:url(#id6)" x="2" y="837" width="1480" height="1373"/>
     </mask>
 </defs>
 <g id="Слой_x0020_1">
  <metadata id="CorelCorpID_0Corel-Layer"/>
  <path class="fil0" d="M1032 1312c414,142 684,-193 1072,363 118,168 243,444 260,479 17,36 23,54 23,54 -494,22 -458,-99 -811,-365 -598,-451 -763,446 -1576,370 451,-716 853,-1470 1260,-2212l589 1068c-786,-645 -1224,104 -817,243z"/>
  <g style="clip-path:url(#id0)">
   <g id="_1950194203760">
    <path id="1" class="fil1" style="mask:url(#id1)" d="M2 2210c3,0 10,-12 13,-12 241,-36 421,-80 595,-260 426,-428 1074,-961 1510,-268 71,112 180,350 236,478 14,32 64,64 46,65 -500,36 -443,-93 -804,-353 -630,-453 -715,388 -1487,353 -44,-2 -99,-2 -109,-3z"/>
    <path class="fil2" style="mask:url(#id3)" d="M446 1351c582,-702 947,-666 1572,-153l-746 -1354 -826 1507z"/>
    <path class="fil1" style="mask:url(#id5)" d="M1085 837c-140,132 -315,386 -53,475 189,65 265,19 450,19 0,0 -132,45 -184,72 -331,170 -532,504 -869,711 -44,27 -96,54 -202,72 -105,18 -225,24 -225,24 257,-405 519,-1067 910,-1302 80,-49 173,-71 173,-71z"/>
   </g>
  </g>
  <path class="fil3" d="M1032 1312c414,142 684,-193 1072,363 118,168 243,444 260,479 17,36 23,54 23,54 -494,22 -458,-99 -811,-365 -598,-451 -763,446 -1576,370 451,-716 853,-1470 1260,-2212l589 1068c-786,-645 -1224,104 -817,243z"/>
 </g>
</svg>
